<?xml version="1.0" encoding="utf-8"?>
<!-- Generator: Adobe Illustrator 26.0.1, SVG Export Plug-In . SVG Version: 6.00 Build 0)  -->
<svg version="1.1" id="Слой_1" xmlns="http://www.w3.org/2000/svg" xmlns:xlink="http://www.w3.org/1999/xlink" x="0px" y="0px"
	 viewBox="0 0 1024 1024" style="enable-background:new 0 0 1024 1024;" xml:space="preserve">
<style type="text/css">
	.st0{fill:#304859;}
	.st1{fill:#FC7058;}
	.st2{fill:#3B5569;}
	.st3{fill:#E0E4E7;}
	.st4{fill:#EAEEF0;}
	.st5{fill:#BDBEC1;}
</style>
<g>
	<path class="st0" d="M880.52,338.53c12.54-2.7,18.78-9.35,19.09-21.8c0.24-9.45,4.42-14.45,13.79-14.24
		c13.94,0.31,27.95,0.41,41.8,1.88c11.96,1.27,21.35,7.66,26.82,18.88c0,3.67,0,7.34,0,11.02c-10.67,16.36-28.1,20.25-45.32,23.62
		c-14.59,2.86-29.5,4.01-44.28,5.91C888.45,355.38,884.49,346.96,880.52,338.53z"/>
	<path class="st0" d="M41.98,321.42c9.47-13.97,23.8-18.08,39.46-19.16c7.31-0.5,14.68-0.78,21.99-0.48
		c17.9,0.73,18.26,1.22,21.09,18.86c1.46,9.13,7.8,15.27,18.4,17.82c-3.76,8.45-7.52,16.89-11.28,25.34
		c-21.22-3.68-42.53-6.93-63.62-11.24c-10.93-2.23-19.9-8.59-26.05-18.29C41.98,329.99,41.98,325.71,41.98,321.42z"/>
	<path class="st1" d="M131.65,363.8c3.76-8.45,7.52-16.89,11.28-25.34c13.45-27.74,26.26-55.83,40.55-83.13
		c12.74-24.34,27.22-47.76,40.76-71.68c11.82-20.89,29.59-31.34,53.52-32.96c49.68-3.37,99.29-7.87,148.99-10.97
		c31.41-1.96,62.96-3.68,94.39-2.98c58.98,1.31,117.93,4.06,176.86,7.06c20.07,1.02,40.03,4.5,60.02,7.03
		c10.81,1.37,20.12,6.12,26.12,15.28c15.38,23.48,31.52,46.6,45.08,71.12c16.83,30.45,31.36,62.18,46.92,93.34
		c1.35,2.71,2.93,5.32,4.39,7.97c3.96,8.43,7.93,16.86,11.9,25.28c13.34,24.69,26.46,49.51,40.08,74.05
		c16.18,29.14,24.44,60.27,25.54,93.53c1.78,53.71-2.69,106.82-16.71,158.75c-3.23,11.98-10.95,22.74-16.61,34.06
		c-14.66,13.56-31.94,18.81-51.86,18.38c-21.6-0.47-43.23,0.66-64.85,1.1c-47.7,0.05-95.39-0.07-143.09,0.16
		c-144.64,0.7-289.27,1.54-433.91,2.35c-3.04,0.02-6.09,0.34-9.13,0.51c-21.23,0.12-42.48-0.22-63.7,0.5
		c-19.42,0.66-37.41-2.69-53.26-14.52c-20-17.94-22.74-43.17-27.92-67.18c-9.9-45.92-13.02-92.49-10.84-139.36
		c1.2-25.87,7.45-50.7,19.37-73.85C100.78,422.73,116.27,393.29,131.65,363.8z M847.56,339.25c0-1.98,0.2-2.67-0.03-3.16
		c-23.59-51.36-47.15-102.73-70.88-154.02c-4.1-8.87-11.56-12.98-21.34-13.19c-14.06-0.3-28.11-0.92-42.17-1.22
		c-59.92-1.27-119.83-3.05-179.75-3.48c-35.13-0.25-70.27,1.65-105.41,2.64c-51.65,1.46-103.29,3.12-154.95,4.34
		c-14.09,0.33-23.35,5.92-29.11,19.2c-18.6,42.87-37.83,85.47-56.8,128.18c-3.53,7.95-6.95,15.95-10.8,24.79
		C400.93,341.97,624.08,340.61,847.56,339.25z M513.35,713.07c0-0.66,0-1.31,0-1.97c58.1,0,116.2,0.05,174.3-0.04
		c12.15-0.02,15.3-3.31,15.31-15.22c0.02-17.74,0-35.49-0.14-53.23c-0.09-11.19-3.77-14.91-14.79-14.96
		c-13.76-0.07-27.53,0.06-41.29,0.14c-103.06,0.61-206.13,1.21-309.19,1.85c-11.95,0.07-15.1,3.27-15.12,15.36
		c-0.02,13.77,0.11,27.53,0.16,41.3c0.11,26.93,0.11,26.82,26.51,26.78C403.85,713.02,458.6,713.07,513.35,713.07z M224.86,560.08
		c21.7,0,43.41-0.1,65.11,0.05c7.78,0.06,14.66-1.31,18.82-8.68c4.19-7.43,1.48-14.07-2.51-20.6
		c-7.48-12.25-15.12-24.42-22.14-36.94c-4.5-8.03-10.61-12.64-19.66-14.77c-35.03-8.22-69.94-16.95-104.89-25.49
		c-9.78-2.39-19.48-5.11-29.33-7.14c-11.85-2.44-20.54,1.91-22.08,11.93c-4.95,32.27,0.15,62.16,23.38,86.89
		c9.28,9.88,19.84,16.01,34.63,15.06C185.67,559.14,205.29,560.08,224.86,560.08z M799.04,560.08c21.4,0,42.82,0.6,64.17-0.34
		c7.05-0.31,15.11-3.09,20.68-7.38c29.16-22.43,35.98-53.91,32.87-88.44c-1.38-15.32-9.81-20.71-24.76-17.09
		c-45.05,10.92-90.11,21.81-134.99,33.39c-5.56,1.43-11.48,5.99-14.78,10.79c-9.15,13.32-17.18,27.43-25.32,41.41
		c-8.78,15.08-1.46,27.55,16.11,27.63C755.03,560.16,777.04,560.08,799.04,560.08z M352.68,559.56c103.77,0,206.63,0,309.67,0
		c0-12.87,0-25.16,0-37.58c-103.59,0-206.42,0-309.67,0C352.68,534.66,352.68,546.76,352.68,559.56z M214.53,664.24
		c0.23-23.32-18.8-42.93-41.98-43.26c-23.5-0.33-43.48,19.31-43.53,42.79c-0.05,23.03,19.3,42.5,42.6,42.88
		C194.45,707.02,214.3,687.4,214.53,664.24z M814.55,659.28c-0.15,24.26,17.8,42.56,41.88,42.71c23.98,0.15,42.83-18.23,42.98-41.93
		c0.15-23.65-18.67-42.87-42.13-43.01C833.58,616.91,814.69,635.58,814.55,659.28z"/>
	<path class="st0" d="M808.02,743.67c21.62-0.43,43.25-1.57,64.85-1.1c19.92,0.43,37.21-4.82,51.86-18.38
		c0.15,24.43,0.52,48.87,0.36,73.3c-0.09,13.53-9.52,23.18-23.01,23.5c-22.59,0.54-45.19,0.81-67.79,0.61
		c-16.49-0.15-25.33-9.09-25.8-25.7C808,778.5,808.15,761.08,808.02,743.67z"/>
	<path class="st0" d="M104.93,732.68c15.85,11.83,33.85,15.18,53.26,14.52c21.21-0.72,42.46-0.38,63.7-0.5
		c0.04,17.7,0.21,35.39,0.09,53.08c-0.1,15.3-8.68,25.08-23.87,25.58c-22.85,0.76-45.74,0.89-68.61,0.51
		c-15.11-0.25-23.88-10.12-24.18-26.4C104.93,777.21,105.04,754.94,104.93,732.68z"/>
	<path class="st0" d="M847.56,339.25c-223.48,1.36-446.63,2.72-671.24,4.1c3.85-8.84,7.27-16.84,10.8-24.79
		c18.97-42.71,38.21-85.31,56.8-128.18c5.76-13.28,15.02-18.87,29.11-19.2c51.66-1.23,103.3-2.89,154.95-4.34
		c35.14-0.99,70.28-2.89,105.41-2.64c59.92,0.43,119.83,2.21,179.75,3.48c14.06,0.3,28.11,0.91,42.17,1.22
		c9.78,0.21,17.24,4.33,21.34,13.19c23.73,51.29,47.29,102.66,70.88,154.02C847.76,336.58,847.56,337.27,847.56,339.25z"/>
	<path class="st2" d="M513.35,713.07c-54.75,0-109.5-0.05-164.25,0.02c-26.4,0.04-26.4,0.14-26.51-26.78
		c-0.06-13.77-0.18-27.53-0.16-41.3c0.02-12.09,3.17-15.29,15.12-15.36c103.06-0.63,206.13-1.24,309.19-1.85
		c13.76-0.08,27.53-0.21,41.29-0.14c11.01,0.05,14.69,3.77,14.79,14.96c0.15,17.74,0.16,35.48,0.14,53.23
		c-0.01,11.91-3.16,15.2-15.31,15.22c-58.1,0.08-116.2,0.04-174.3,0.04C513.35,711.76,513.35,712.41,513.35,713.07z"/>
	<path class="st3" d="M224.86,560.08c-19.56,0-39.19-0.94-58.67,0.31c-14.79,0.95-25.36-5.19-34.63-15.06
		c-23.23-24.73-28.33-54.62-23.38-86.89c1.54-10.01,10.23-14.37,22.08-11.93c9.85,2.03,19.56,4.75,29.33,7.14
		c34.95,8.55,69.86,17.27,104.89,25.49c9.05,2.13,15.16,6.74,19.66,14.77c7.02,12.52,14.66,24.69,22.14,36.94
		c3.99,6.54,6.7,13.17,2.51,20.6c-4.16,7.38-11.05,8.74-18.82,8.68C268.26,559.98,246.56,560.08,224.86,560.08z M142.93,504.56
		c-0.06,16.48,14.47,31.59,30.37,31.59c16.59,0,31.45-14.66,31.97-31.52c0.48-15.64-14.84-30.82-31.11-30.84
		C155.67,473.77,143,486.25,142.93,504.56z M216.41,526.04c-0.12,12.83,11.02,24.84,23.02,24.82c12.06-0.02,24.63-12.17,24.63-23.83
		c0.01-12.72-10.79-23.46-23.94-23.81C227.6,502.88,216.52,513.54,216.41,526.04z"/>
	<path class="st3" d="M799.04,560.08c-22.01,0-44.01,0.08-66.02-0.03c-17.56-0.08-24.89-12.55-16.11-27.63
		c8.14-13.99,16.17-28.1,25.32-41.41c3.3-4.8,9.22-9.36,14.78-10.79c44.88-11.58,89.94-22.47,134.99-33.39
		c14.95-3.62,23.38,1.77,24.76,17.09c3.11,34.54-3.71,66.01-32.87,88.44c-5.57,4.29-13.63,7.06-20.68,7.38
		C841.86,560.68,820.44,560.08,799.04,560.08z M881.07,505.38c0.1-18.27-12.64-31.47-30.49-31.59c-16.8-0.11-31.5,13.73-31.85,30.02
		c-0.36,16.71,15.23,32.44,32.06,32.34C866.36,536.06,880.98,521.21,881.07,505.38z M784.77,503.21
		c-13.09-0.12-24.74,10.62-24.82,22.89c-0.08,12.44,12.23,24.79,24.68,24.75c11.63-0.03,22.63-11.51,22.96-23.95
		C807.91,514.4,797.25,503.33,784.77,503.21z"/>
	<path class="st2" d="M352.68,559.56c0-12.8,0-24.9,0-37.58c103.25,0,206.08,0,309.67,0c0,12.42,0,24.71,0,37.58
		C559.31,559.56,456.45,559.56,352.68,559.56z"/>
	<path class="st4" d="M214.53,664.24c-0.23,23.16-20.08,42.78-42.92,42.41c-23.3-0.37-42.65-19.85-42.6-42.88
		c0.05-23.48,20.03-43.12,43.53-42.79C195.73,621.31,214.76,640.92,214.53,664.24z"/>
	<path class="st4" d="M814.55,659.28c0.14-23.7,19.03-42.37,42.73-42.23c23.46,0.14,42.28,19.36,42.13,43.01
		c-0.15,23.69-19,42.08-42.98,41.93C832.34,701.84,814.4,683.54,814.55,659.28z"/>
	<path class="st5" d="M142.93,504.56c0.07-18.31,12.74-30.8,31.23-30.78c16.27,0.02,31.58,15.2,31.11,30.84
		c-0.51,16.87-15.38,31.52-31.97,31.52C157.4,536.16,142.87,521.04,142.93,504.56z"/>
	<path class="st5" d="M216.41,526.04c0.11-12.5,11.19-23.15,23.72-22.82c13.15,0.35,23.94,11.09,23.94,23.81
		c0,11.66-12.57,23.81-24.63,23.83C227.43,550.87,216.29,538.87,216.41,526.04z"/>
	<path class="st5" d="M881.07,505.38c-0.09,15.83-14.71,30.68-30.28,30.77c-16.83,0.1-32.43-15.64-32.06-32.34
		c0.35-16.29,15.05-30.13,31.85-30.02C868.42,473.91,881.17,487.12,881.07,505.38z"/>
	<path class="st5" d="M784.77,503.21c12.49,0.12,23.15,11.18,22.82,23.69c-0.32,12.44-11.33,23.92-22.96,23.95
		c-12.45,0.03-24.77-12.31-24.68-24.75C760.03,513.83,771.67,503.09,784.77,503.21z"/>
</g>
</svg>
